<?xml version="1.0" encoding="utf-8"?><svg version="1.1" id="Layer_1" xmlns="http://www.w3.org/2000/svg"
  xmlns:xlink="http://www.w3.org/1999/xlink" x="0px" y="0px" viewBox="0 0 94.77 122.88"
  style="enable-background:new 0 0 94.77 122.88" xml:space="preserve">
  <path class="st0"
    d="M15.38,13.38H79.4c0.97,0,1.85,0.4,2.48,1.03c0.05,0.05,0.1,0.1,0.14,0.16c0.55,0.62,0.88,1.43,0.88,2.33V36.9 c0,0.96-0.4,1.84-1.03,2.48l-0.01,0.01c-0.64,0.64-1.51,1.03-2.48,1.03H15.38c-0.98,0-1.85-0.4-2.48-1.03 c-0.05-0.05-0.1-0.1-0.14-0.16c-0.55-0.62-0.88-1.43-0.88-2.33V16.89c0-0.96,0.4-1.83,1.04-2.47l0.01-0.01 C13.55,13.77,14.42,13.38,15.38,13.38L15.38,13.38L15.38,13.38z M71.16,20.71h2.3v12.4h-2.3V20.71L71.16,20.71L71.16,20.71 L71.16,20.71z M78.94,17.35H15.84v19.09h63.1L78.94,17.35L78.94,17.35L78.94,17.35z M67.02,74.46h11.25c0.96,0,1.76,0.78,1.76,1.76 v9.49c0,0.96-0.78,1.76-1.76,1.76H67.02c-0.96,0-1.76-0.78-1.76-1.76v-9.49C65.27,75.24,66.06,74.46,67.02,74.46L67.02,74.46 L67.02,74.46L67.02,74.46z M67.02,51.9h11.25c0.96,0,1.76,0.78,1.76,1.76v9.49c0,0.96-0.78,1.76-1.76,1.76H67.02 c-0.96,0-1.76-0.78-1.76-1.76v-9.49C65.27,52.69,66.06,51.9,67.02,51.9L67.02,51.9L67.02,51.9L67.02,51.9z M67.02,97.01h11.25 c0.96,0,1.76,0.78,1.76,1.76v9.49c0,0.96-0.78,1.76-1.76,1.76H67.02c-0.96,0-1.76-0.78-1.76-1.76v-9.49 C65.27,97.81,66.06,97.01,67.02,97.01L67.02,97.01L67.02,97.01L67.02,97.01z M41.64,74.46h11.25c0.96,0,1.76,0.78,1.76,1.76v9.49 c0,0.96-0.78,1.76-1.76,1.76H41.64c-0.96,0-1.76-0.78-1.76-1.76v-9.49C39.89,75.24,40.68,74.46,41.64,74.46L41.64,74.46 L41.64,74.46L41.64,74.46z M41.64,51.9h11.25c0.96,0,1.76,0.78,1.76,1.76v9.49c0,0.96-0.78,1.76-1.76,1.76H41.64 c-0.96,0-1.76-0.78-1.76-1.76v-9.49C39.89,52.69,40.68,51.9,41.64,51.9L41.64,51.9L41.64,51.9L41.64,51.9z M41.64,97.01h11.25 c0.96,0,1.76,0.78,1.76,1.76v9.49c0,0.96-0.78,1.76-1.76,1.76H41.64c-0.96,0-1.76-0.78-1.76-1.76v-9.49 C39.89,97.81,40.68,97.01,41.64,97.01L41.64,97.01L41.64,97.01L41.64,97.01z M16.73,51.9h11.25c0.96,0,1.76,0.78,1.76,1.76v9.49 c0,0.96-0.78,1.76-1.76,1.76H16.73c-0.96,0-1.76-0.78-1.76-1.76v-9.49C14.98,52.69,15.77,51.9,16.73,51.9L16.73,51.9L16.73,51.9 L16.73,51.9z M16.73,97.01h11.25c0.96,0,1.76,0.78,1.76,1.76v9.49c0,0.96-0.78,1.76-1.76,1.76H16.73c-0.96,0-1.76-0.78-1.76-1.76 v-9.49C14.98,97.81,15.77,97.01,16.73,97.01L16.73,97.01L16.73,97.01L16.73,97.01L16.73,97.01z M16.73,74.46h11.25 c0.96,0,1.76,0.78,1.76,1.76v9.49c0,0.96-0.78,1.76-1.76,1.76H16.73c-0.96,0-1.76-0.78-1.76-1.76v-9.49 C14.98,75.24,15.77,74.46,16.73,74.46L16.73,74.46L16.73,74.46L16.73,74.46z M7.04,0h80.7c1.93,0,3.68,0.79,4.96,2.06l0.02,0.01 c1.27,1.28,2.06,3.03,2.06,4.96v108.81c0,1.93-0.79,3.68-2.06,4.96l-0.02,0.02c-1.28,1.27-3.03,2.06-4.96,2.06H7.04 c-1.93,0-3.68-0.79-4.96-2.06l-0.01-0.01C0.79,119.52,0,117.77,0,115.84V7.04c0-1.93,0.79-3.68,2.06-4.96l0.01-0.01 C3.36,0.79,5.11,0,7.04,0L7.04,0z M87.74,4.72H7.04C6.4,4.72,5.82,4.98,5.4,5.4L5.4,5.4C4.98,5.82,4.72,6.4,4.72,7.04v108.81 c0,0.64,0.26,1.22,0.67,1.63l0.01,0.01c0.41,0.41,0.99,0.67,1.63,0.67h80.7c0.64,0,1.22-0.26,1.63-0.67l0.01-0.01 c0.41-0.41,0.67-0.99,0.67-1.63V7.04c0-0.64-0.26-1.22-0.67-1.63L89.37,5.4C88.96,4.98,88.38,4.72,87.74,4.72L87.74,4.72z" />
</svg>
